# xmcd CD database file
#
# Track frame offsets:
#	150
#	18370
#	35431
#	53463
#	66517
#	92090
#	100232
#	116856
#	126184
#	145366
#	159191
#
# Disc length: 2407 seconds
#
# Revision: 0
# Processed by: cddbd v1.5.1PL2 Copyright (c) Steve Scherf et al.
# Submitted via: CDex 1.51
#
DISCID=9209650b
DTITLE=Bo Weavil - Mo Diggin'
DYEAR=2006
DGENRE=Blues
TTITLE0=I love my baby
TTITLE1=Big road blues
TTITLE2=44 blues
TTITLE3=Love her all the time
TTITLE4=Lazy-bones blues
TTITLE5=Hawaiian manbo
TTITLE6=Diggin' my potatoes
TTITLE7=Country farm
TTITLE8=Mean old frisco
TTITLE9=Mellow apples
TTITLE10=Mississippi bo weavil blues
EXTD=YEAR: 2006
EXTT0=
EXTT1=
EXTT2=
EXTT3=
EXTT4=
EXTT5=
EXTT6=
EXTT7=
EXTT8=
EXTT9=
EXTT10=
PLAYORDER=
